<svg width="56" height="51" viewBox="0 0 56 51" fill="none" xmlns="http://www.w3.org/2000/svg">
<path d="M7.70337 40.5923C9.12774 40.5923 10.5521 40.1853 11.773 39.4392C23.5749 50.2916 34.4951 54.5647 39.3787 46.7645C41.5492 43.3732 41.0065 39.7105 38.4969 35.98C37.0047 33.6739 35.1056 31.7069 31.3751 28.3155C24.5924 21.9398 22.9645 19.7015 23.9141 18.2093C24.8637 16.7171 27.3054 17.5988 33.2064 22.0076L33.8169 22.4824C37.6152 25.3311 39.0396 26.2807 41.0065 27.2303C44.0588 28.7225 46.7719 28.926 48.9423 27.0268C51.2485 24.992 51.5198 22.2789 50.2311 19.4302C49.485 17.7345 48.7389 16.6492 46.1614 13.3257C45.4831 12.444 45.0762 11.9692 44.6692 11.4266C42.6344 8.64563 42.024 6.94995 42.5666 6.00037C43.1092 5.05079 43.9231 4.77948 45.6188 5.3221C46.7719 5.79689 47.9249 6.33951 48.9423 7.08561C49.6884 7.5604 50.3667 8.10302 51.045 8.57781C51.4519 8.91694 51.7233 9.12043 51.8589 9.25608C52.8763 10.1378 54.4363 10.07 55.3181 9.12043C55.3181 9.12043 55.3181 9.0526 55.3859 9.0526C56.2677 7.96736 56.1999 6.40734 55.1824 5.45775C54.0972 4.50817 52.8763 3.55859 51.6554 2.81249C50.2989 1.86291 48.7389 1.11681 47.1788 0.574193C43.3805 -0.714525 39.9213 0.0994022 38.1578 3.69425C36.4621 7.01778 37.6152 10.2057 40.7352 14.4788C41.1422 15.0892 41.617 15.6318 42.2953 16.5136C45.9579 21.1937 46.5006 22.4824 45.6866 23.2285C44.8727 23.9746 42.6344 22.7537 36.8013 18.4128L36.1908 17.8701C32.596 15.2249 30.4933 13.8683 28.3229 13.0544C24.9315 11.7657 21.8793 12.3761 19.9123 15.2927C17.9453 18.2093 18.5557 21.3293 20.9297 24.585C22.4219 26.6199 23.5749 27.7729 28.1194 32.046C31.5107 35.2339 33.2064 36.9974 34.4951 38.8966C35.9873 41.1349 36.1908 42.6949 35.3091 44.1193C32.7995 47.782 24.5924 44.4584 14.8931 35.5052C16.3174 31.5034 14.2148 27.1625 10.213 25.7381C6.21117 24.3137 1.87023 26.4164 0.445857 30.4182C-0.978515 34.42 1.12413 38.7609 5.12594 40.1853C6.00769 40.4566 6.82162 40.5923 7.70337 40.5923ZM7.70337 30.4182C9.12774 30.4182 10.2808 31.5712 10.2808 32.9956C10.2808 34.42 9.12774 35.5052 7.70337 35.5052C6.279 35.5052 5.12594 34.3522 5.12594 32.9278C5.12594 31.5034 6.279 30.4182 7.70337 30.4182Z" fill="white"/>
</svg>
